<svg width="18" height="18" viewBox="0 0 18 18" fill="none" xmlns="http://www.w3.org/2000/svg">
<path fill-rule="evenodd" clip-rule="evenodd" d="M9.00037 5.22522C7.99918 5.22522 7.03899 5.62294 6.33104 6.33089C5.6231 7.03884 5.22537 7.99903 5.22537 9.00022C5.22537 10.0014 5.6231 10.9616 6.33104 11.6695C7.03899 12.3775 7.99918 12.7752 9.00037 12.7752C10.0016 12.7752 10.9618 12.3775 11.6697 11.6695C12.3776 10.9616 12.7754 10.0014 12.7754 9.00022C12.7754 7.99903 12.3776 7.03884 11.6697 6.33089C10.9618 5.62294 10.0016 5.22522 9.00037 5.22522ZM7.25028 7.25013C7.71444 6.78598 8.34396 6.52522 9.00037 6.52522C9.65678 6.52522 10.2863 6.78598 10.7505 7.25013C11.2146 7.71428 11.4754 8.34381 11.4754 9.00022C11.4754 9.65663 11.2146 10.2862 10.7505 10.7503C10.2863 11.2145 9.65678 11.4752 9.00037 11.4752C8.34396 11.4752 7.71444 11.2145 7.25028 10.7503C6.78613 10.2862 6.52537 9.65663 6.52537 9.00022C6.52537 8.34381 6.78613 7.71428 7.25028 7.25013Z" fill="currentColor"/>
<path fill-rule="evenodd" clip-rule="evenodd" d="M5.84307 14.857C6.00187 15.0002 6.10276 15.1967 6.12657 15.4094L6.20802 16.1361C6.29314 16.8956 6.86749 17.573 7.69971 17.7013C8.56248 17.8342 9.44054 17.8343 10.3033 17.7014C11.1369 17.573 11.7117 16.8938 11.7955 16.1329L11.8763 15.3995L11.877 15.3931C11.8914 15.2564 11.9379 15.1251 12.0127 15.0099C12.0875 14.8947 12.1885 14.7988 12.3075 14.7301C12.4264 14.6614 12.56 14.6218 12.6972 14.6146C12.8344 14.6074 12.9713 14.6328 13.0968 14.6887L13.7681 14.9823C14.4751 15.2916 15.3547 15.126 15.8795 14.4624C16.413 13.7878 16.8469 13.04 17.1679 12.2421C17.4845 11.4551 17.1894 10.6072 16.5671 10.1477L15.9745 9.71013L15.9691 9.70621C15.8579 9.62499 15.7675 9.51867 15.7051 9.39589C15.6428 9.27312 15.6103 9.13737 15.6103 8.99968C15.6103 8.86198 15.6428 8.72623 15.7051 8.60346C15.7675 8.48069 15.8579 8.37437 15.9691 8.29314L16.5647 7.85533C17.1883 7.39697 17.4855 6.54885 17.1694 5.76066C16.8481 4.95949 16.4122 4.20914 15.8755 3.53311C15.3501 2.87147 14.4719 2.70736 13.7664 3.01605L13.1075 3.30429C12.9508 3.37058 12.7785 3.39142 12.6105 3.36436C12.4426 3.33733 12.2857 3.26362 12.1578 3.1517C11.9992 3.00805 11.8986 2.81034 11.8753 2.59755L11.7985 1.87898C11.716 1.10763 11.1314 0.426228 10.2939 0.301936C9.87414 0.239645 9.45084 0.205827 9.027 0.200407L9.01043 0.200195L8.99386 0.200406C8.56661 0.205835 8.1396 0.239803 7.71614 0.302368C6.88135 0.425707 6.29629 1.10296 6.21083 1.8725L6.13034 2.59737C6.10579 2.81339 6.00281 3.01289 5.84092 3.15803C5.67904 3.30315 5.46952 3.38379 5.25213 3.38468C5.13277 3.38478 5.01471 3.35992 4.90551 3.3117L4.237 3.01923C3.53123 2.71046 2.65278 2.87475 2.12752 3.53678C1.59107 4.21291 1.15553 4.96331 0.834512 5.76448C0.519397 6.55092 0.814727 7.39713 1.43577 7.85604L2.02843 8.29396L2.02982 8.29498C2.14082 8.37677 2.23104 8.4835 2.29322 8.60655C2.3554 8.72961 2.38779 8.86555 2.38779 9.00343C2.38779 9.1413 2.3554 9.27724 2.29322 9.4003C2.23104 9.52336 2.14082 9.63008 2.02982 9.71186L1.43388 10.1521C0.813029 10.6108 0.51757 11.4565 0.832083 12.2428C1.15303 13.0452 1.58882 13.7967 2.1258 14.4739C2.6504 15.1354 3.52776 15.3002 4.23331 14.9927L4.89559 14.704C5.05196 14.6383 5.22368 14.6178 5.3912 14.6448C5.55874 14.6718 5.7153 14.7454 5.84307 14.857ZM14.2874 4.20706C14.4871 4.11968 14.7218 4.17075 14.8573 4.34147C15.3159 4.91903 15.6883 5.56009 15.9628 6.24456C16.0444 6.4479 15.9713 6.67812 15.7948 6.80787L15.2022 7.24343C14.9259 7.44533 14.7011 7.70962 14.5461 8.01479C14.3911 8.31996 14.3103 8.6574 14.3103 8.99968C14.3103 9.34195 14.3911 9.67939 14.5461 9.98456C14.7011 10.2897 14.9259 10.554 15.2022 10.7559L15.7948 11.1935C15.971 11.3236 16.0435 11.5537 15.9618 11.7569C15.6873 12.4394 15.3161 13.079 14.8598 13.6561C14.7243 13.8274 14.4892 13.8789 14.2891 13.7913L13.6254 13.5009C13.3124 13.3617 12.971 13.2984 12.629 13.3164C12.2869 13.3344 11.954 13.4331 11.6574 13.6043C11.3608 13.7756 11.1089 14.0147 10.9224 14.3019C10.7358 14.5892 10.6199 14.9165 10.5841 15.2572L10.5033 15.9905C10.4796 16.2061 10.3198 16.3835 10.1054 16.4166C9.37386 16.5292 8.62929 16.5292 7.89771 16.4164C7.6837 16.3835 7.52405 16.2065 7.49993 15.9913L7.4185 15.2647C7.35892 14.7327 7.10524 14.2413 6.706 13.8847C6.39357 13.6092 6.00953 13.4278 5.59831 13.3614C5.18709 13.295 4.76548 13.3464 4.38225 13.5097L3.71388 13.801C3.51417 13.888 3.27975 13.8368 3.14438 13.6661C2.68562 13.0876 2.3133 12.4455 2.03911 11.76C1.95796 11.5571 2.03059 11.3276 2.20634 11.1977L2.801 10.7584C3.07596 10.5558 3.29947 10.2914 3.45351 9.98659C3.60754 9.68175 3.68779 9.34497 3.68779 9.00343C3.68779 8.66188 3.60754 8.32511 3.45351 8.02026C3.29947 7.71542 3.07596 7.45104 2.801 7.24843L2.20834 6.8105C2.03254 6.6806 1.95995 6.4509 2.04125 6.24799C2.3155 5.56352 2.68761 4.92243 3.14592 4.34478C3.28145 4.17396 3.51616 4.12283 3.71593 4.21023L4.38037 4.50093C4.656 4.62264 4.95407 4.68523 5.25537 4.68468C5.79193 4.68299 6.30915 4.48417 6.70867 4.12601C7.1082 3.76786 7.36216 3.27536 7.42225 2.74218L7.50289 2.01598C7.52704 1.79847 7.68965 1.62039 7.90615 1.58841C8.27193 1.53436 8.64098 1.50499 9.01037 1.5003C9.37617 1.50498 9.74126 1.53416 10.103 1.58785C10.32 1.62005 10.4825 1.79906 10.5058 2.01716L10.5829 2.7378C10.6408 3.27133 10.8939 3.76461 11.2935 4.1228C11.6065 4.39938 11.9915 4.58145 12.4038 4.64783C12.8162 4.71422 13.2389 4.66219 13.6229 4.4978L14.2874 4.20706Z" fill="currentColor"/>
</svg>
