<svg width="18" height="18" viewBox="0 0 18 18" fill="none" xmlns="http://www.w3.org/2000/svg">
<path fill-rule="evenodd" clip-rule="evenodd" d="M1.49998 0.850098C1.14099 0.850098 0.849976 1.14111 0.849976 1.5001V9.33343C0.849976 9.69242 1.14099 9.98343 1.49998 9.98343H7.33331C7.69229 9.98343 7.98331 9.69242 7.98331 9.33343V1.5001C7.98331 1.14111 7.69229 0.850098 7.33331 0.850098H1.49998ZM2.14998 8.68343V2.1501H6.68331V8.68343H2.14998Z" fill="currentColor"/>
<path fill-rule="evenodd" clip-rule="evenodd" d="M10.6667 0.850098C10.3077 0.850098 10.0167 1.14111 10.0167 1.5001V5.33343C10.0167 5.69242 10.3077 5.98343 10.6667 5.98343H16.5C16.859 5.98343 17.15 5.69242 17.15 5.33343V1.5001C17.15 1.14111 16.859 0.850098 16.5 0.850098H10.6667ZM11.3167 4.68343V2.1501H15.85V4.68343H11.3167Z" fill="currentColor"/>
<path fill-rule="evenodd" clip-rule="evenodd" d="M10.0167 8.66685C10.0167 8.30786 10.3077 8.01685 10.6667 8.01685H16.5C16.859 8.01685 17.15 8.30786 17.15 8.66685V16.5002C17.15 16.8592 16.859 17.1502 16.5 17.1502H10.6667C10.3077 17.1502 10.0167 16.8592 10.0167 16.5002V8.66685ZM11.3167 9.31685V15.8502H15.85V9.31685H11.3167Z" fill="currentColor"/>
<path fill-rule="evenodd" clip-rule="evenodd" d="M1.49998 12.0168C1.14099 12.0168 0.849976 12.3079 0.849976 12.6668V16.5002C0.849976 16.8592 1.14099 17.1502 1.49998 17.1502H7.33331C7.69229 17.1502 7.98331 16.8592 7.98331 16.5002V12.6668C7.98331 12.3079 7.69229 12.0168 7.33331 12.0168H1.49998ZM2.14998 15.8502V13.3168H6.68331V15.8502H2.14998Z" fill="currentColor"/>
</svg>
