<svg width="20" height="18" viewBox="0 0 20 18" fill="none" xmlns="http://www.w3.org/2000/svg">
<path fill-rule="evenodd" clip-rule="evenodd" d="M7.5 0.850098C5.30006 0.850098 3.51666 2.6335 3.51666 4.83343C3.51666 7.03336 5.30006 8.81676 7.5 8.81676C9.69993 8.81676 11.4833 7.03336 11.4833 4.83343C11.4833 2.6335 9.69993 0.850098 7.5 0.850098ZM4.81666 4.83343C4.81666 3.35147 6.01803 2.1501 7.5 2.1501C8.98196 2.1501 10.1833 3.35147 10.1833 4.83343C10.1833 6.31539 8.98196 7.51676 7.5 7.51676C6.01803 7.51676 4.81666 6.31539 4.81666 4.83343Z" fill="currentColor"/>
<path d="M4.16668 10.8501C3.11024 10.8501 2.09706 11.2698 1.35004 12.0168C0.603021 12.7638 0.18335 13.777 0.18335 14.8334V16.5001C0.18335 16.8591 0.474365 17.1501 0.83335 17.1501C1.19233 17.1501 1.48335 16.8591 1.48335 16.5001V14.8334C1.48335 14.1218 1.76606 13.4393 2.26928 12.936C2.7725 12.4328 3.45502 12.1501 4.16668 12.1501H10.8333C11.545 12.1501 12.2275 12.4328 12.7308 12.936C13.234 13.4393 13.5167 14.1218 13.5167 14.8334V16.5001C13.5167 16.8591 13.8077 17.1501 14.1667 17.1501C14.5257 17.1501 14.8167 16.8591 14.8167 16.5001V14.8334C14.8167 13.777 14.397 12.7638 13.65 12.0168C12.903 11.2698 11.8898 10.8501 10.8333 10.8501H4.16668Z" fill="currentColor"/>
<path d="M16.0373 11.4459C16.1271 11.0983 16.4816 10.8893 16.8292 10.979C17.6837 11.1997 18.4408 11.6979 18.9815 12.3954C19.5223 13.093 19.816 13.9503 19.8167 14.8329V16.5001C19.8167 16.8591 19.5257 17.1501 19.1667 17.1501C18.8077 17.1501 18.5167 16.8591 18.5167 16.5001V14.8336C18.5162 14.2392 18.3183 13.6617 17.9541 13.1919C17.5898 12.722 17.0798 12.3864 16.5042 12.2378C16.1566 12.148 15.9476 11.7935 16.0373 11.4459Z" fill="currentColor"/>
<path d="M13.4946 0.978721C13.1468 0.889679 12.7927 1.09942 12.7037 1.44718C12.6146 1.79495 12.8244 2.14905 13.1721 2.2381C13.7493 2.38588 14.2609 2.72157 14.6263 3.19223C14.9916 3.66289 15.1899 4.24176 15.1899 4.83758C15.1899 5.43339 14.9916 6.01226 14.6263 6.48292C14.2609 6.95358 13.7493 7.28927 13.1721 7.43706C12.8244 7.5261 12.6146 7.8802 12.7037 8.22797C12.7927 8.57573 13.1468 8.78547 13.4946 8.69643C14.3514 8.47705 15.1109 7.97873 15.6532 7.28005C16.1955 6.58136 16.4899 5.72205 16.4899 4.83758C16.4899 3.95311 16.1955 3.09379 15.6532 2.39511C15.1109 1.69642 14.3514 1.1981 13.4946 0.978721Z" fill="currentColor"/>
</svg>
